STARTFONT 2.1
COMMENT AUTOMATICALLY GENERATED FILE. DO NOT EDIT!
COMMENT Generated with 'ucs2any lubR08.bdf /usr/local/lib/X11/fonts/util/map-ISO8859-13 ISO8859-13'
COMMENT from an ISO10646-1 encoded source BDF font.
COMMENT ucs2any by Ben Collver <collver1@attbi.com>, 2003, based on
COMMENT ucs2any.pl by Markus Kuhn <http://www.cl.cam.ac.uk/~mgk25/>, 2000.
COMMENT $Xorg: $
COMMENT ISO10646-1 extension by Markus Kuhn <mkuhn@acm.org>, 2001-03-20
COMMENT  (c) Copyright Bigelow & Holmes 1986, 1985. Lucida is a registered
COMMENT  trademark of Bigelow & Holmes. See LEGAL NOTICE file for terms
COMMENT  of the license.
FONT -B&H-LucidaBright-Medium-R-Normal--8-80-75-75-P-45-ISO8859-13
SIZE 8 72 72
FONTBOUNDINGBOX 13 12 -4 -4
STARTPROPERTIES 22
COMMENT Begin LogicalFontDescription
FONTNAME_REGISTRY ""
FOUNDRY "B&H"
FAMILY_NAME "LucidaBright"
WEIGHT_NAME "Medium"
SLANT "R"
SETWIDTH_NAME "Normal"
ADD_STYLE_NAME ""
PIXEL_SIZE 8
POINT_SIZE 80
RESOLUTION_X 75
RESOLUTION_Y 75
SPACING "P"
AVERAGE_WIDTH 45
CHARSET_REGISTRY "ISO8859"
CHARSET_ENCODING "13"
COMMENT END LogicalFontDescription
FONT_ASCENT 7
FONT_DESCENT 2
DEFAULT_CHAR 0
COPYRIGHT "Copyright Bigelow & Holmes 1986, 1985."
FACE_NAME "Lucida Bright"
X_HEIGHT 4
CAP_HEIGHT 6
ENDPROPERTIES
CHARS 192
STARTCHAR defaultchar
ENCODING 0
SWIDTH 771 0
DWIDTH 6 0
BBX 5 5 0 0
BITMAP
A8
00
88
00
A8
ENDCHAR
STARTCHAR space
ENCODING 32
SWIDTH 333 0
DWIDTH 2 0
BBX 1 1 0 0
BITMAP
00
ENDCHAR
STARTCHAR exclam
ENCODING 33
SWIDTH 265 0
DWIDTH 2 0
BBX 1 6 1 0
BITMAP
80
80
80
80
00
80
ENDCHAR
STARTCHAR quotedbl
ENCODING 34
SWIDTH 386 0
DWIDTH 3 0
BBX 2 2 1 4
BITMAP
C0
C0
ENDCHAR
STARTCHAR numbersign
ENCODING 35
SWIDTH 608 0
DWIDTH 5 0
BBX 5 6 0 0
BITMAP
38
F8
50
F8
60
E0
ENDCHAR
STARTCHAR dollar
ENCODING 36
SWIDTH 608 0
DWIDTH 5 0
BBX 3 7 1 -1
BITMAP
60
E0
C0
60
E0
C0
40
ENDCHAR
STARTCHAR percent
ENCODING 37
SWIDTH 675 0
DWIDTH 5 0
BBX 4 6 1 0
BITMAP
D0
E0
E0
70
70
B0
ENDCHAR
STARTCHAR ampersand
ENCODING 38
SWIDTH 690 0
DWIDTH 6 0
BBX 5 6 0 0
BITMAP
60
60
60
D8
B0
78
ENDCHAR
STARTCHAR quotesingle
ENCODING 39
SWIDTH 241 0
DWIDTH 2 0
BBX 1 2 0 4
BITMAP
80
80
ENDCHAR
STARTCHAR parenleft
ENCODING 40
SWIDTH 316 0
DWIDTH 3 0
BBX 2 8 0 -2
BITMAP
40
80
80
80
80
80
80
40
ENDCHAR
STARTCHAR parenright
ENCODING 41
SWIDTH 316 0
DWIDTH 3 0
BBX 2 8 0 -2
BITMAP
80
40
40
40
40
40
40
80
ENDCHAR
STARTCHAR asterisk
ENCODING 42
SWIDTH 470 0
DWIDTH 4 0
BBX 3 4 0 2
BITMAP
C0
60
C0
20
ENDCHAR
STARTCHAR plus
ENCODING 43
SWIDTH 608 0
DWIDTH 5 0
BBX 5 5 0 0
BITMAP
20
20
F8
20
20
ENDCHAR
STARTCHAR comma
ENCODING 44
SWIDTH 265 0
DWIDTH 2 0
BBX 1 3 1 -2
BITMAP
80
80
80
ENDCHAR
STARTCHAR hyphen
ENCODING 45
SWIDTH 325 0
DWIDTH 3 0
BBX 2 1 0 2
BITMAP
C0
ENDCHAR
STARTCHAR period
ENCODING 46
SWIDTH 265 0
DWIDTH 2 0
BBX 1 1 1 0
BITMAP
80
ENDCHAR
STARTCHAR slash
ENCODING 47
SWIDTH 512 0
DWIDTH 4 0
BBX 4 8 0 -2
BITMAP
10
10
20
20
40
40
80
80
ENDCHAR
STARTCHAR zero
ENCODING 48
SWIDTH 608 0
DWIDTH 5 0
BBX 4 6 0 0
BITMAP
60
90
90
90
90
60
ENDCHAR
STARTCHAR one
ENCODING 49
SWIDTH 608 0
DWIDTH 5 0
BBX 3 6 1 0
BITMAP
C0
40
40
40
40
E0
ENDCHAR
STARTCHAR two
ENCODING 50
SWIDTH 608 0
DWIDTH 5 0
BBX 3 6 1 0
BITMAP
E0
A0
20
40
80
E0
ENDCHAR
STARTCHAR three
ENCODING 51
SWIDTH 608 0
DWIDTH 5 0
BBX 3 6 1 0
BITMAP
E0
A0
40
60
A0
C0
ENDCHAR
STARTCHAR four
ENCODING 52
SWIDTH 608 0
DWIDTH 5 0
BBX 5 6 0 0
BITMAP
30
70
D0
F8
10
38
ENDCHAR
STARTCHAR five
ENCODING 53
SWIDTH 608 0
DWIDTH 5 0
BBX 3 6 1 0
BITMAP
E0
80
C0
20
A0
C0
ENDCHAR
STARTCHAR six
ENCODING 54
SWIDTH 608 0
DWIDTH 5 0
BBX 4 6 0 0
BITMAP
70
90
E0
90
90
60
ENDCHAR
STARTCHAR seven
ENCODING 55
SWIDTH 608 0
DWIDTH 5 0
BBX 4 6 1 0
BITMAP
F0
10
20
40
C0
80
ENDCHAR
STARTCHAR eight
ENCODING 56
SWIDTH 608 0
DWIDTH 5 0
BBX 4 6 0 0
BITMAP
F0
90
50
B0
90
E0
ENDCHAR
STARTCHAR nine
ENCODING 57
SWIDTH 608 0
DWIDTH 5 0
BBX 4 6 0 0
BITMAP
60
90
90
70
90
E0
ENDCHAR
STARTCHAR colon
ENCODING 58
SWIDTH 265 0
DWIDTH 2 0
BBX 1 4 1 0
BITMAP
80
00
00
80
ENDCHAR
STARTCHAR semicolon
ENCODING 59
SWIDTH 265 0
DWIDTH 2 0
BBX 1 6 1 -2
BITMAP
80
00
00
80
80
80
ENDCHAR
STARTCHAR less
ENCODING 60
SWIDTH 608 0
DWIDTH 5 0
BBX 6 5 1 0
BITMAP
0C
38
E0
38
0C
ENDCHAR
STARTCHAR equal
ENCODING 61
SWIDTH 608 0
DWIDTH 5 0
BBX 5 2 0 1
BITMAP
F8
F8
ENDCHAR
STARTCHAR greater
ENCODING 62
SWIDTH 608 0
DWIDTH 5 0
BBX 6 5 0 0
BITMAP
C0
70
1C
70
C0
ENDCHAR
STARTCHAR question
ENCODING 63
SWIDTH 480 0
DWIDTH 4 0
BBX 3 6 0 0
BITMAP
E0
A0
40
40
40
40
ENDCHAR
STARTCHAR at
ENCODING 64
SWIDTH 873 0
DWIDTH 7 0
BBX 7 6 0 0
BITMAP
3C
56
BA
AE
F4
78
ENDCHAR
STARTCHAR A
ENCODING 65
SWIDTH 744 0
DWIDTH 6 0
BBX 6 6 0 0
BITMAP
20
30
50
78
88
CC
ENDCHAR
STARTCHAR B
ENCODING 66
SWIDTH 609 0
DWIDTH 5 0
BBX 5 6 0 0
BITMAP
F8
48
70
48
48
F8
ENDCHAR
STARTCHAR C
ENCODING 67
SWIDTH 695 0
DWIDTH 6 0
BBX 5 6 0 0
BITMAP
78
C8
80
80
C0
78
ENDCHAR
STARTCHAR D
ENCODING 68
SWIDTH 768 0
DWIDTH 6 0
BBX 6 6 0 0
BITMAP
F8
44
44
44
44
F8
ENDCHAR
STARTCHAR E
ENCODING 69
SWIDTH 566 0
DWIDTH 5 0
BBX 4 6 0 0
BITMAP
F0
50
60
40
50
F0
ENDCHAR
STARTCHAR F
ENCODING 70
SWIDTH 548 0
DWIDTH 4 0
BBX 4 6 0 0
BITMAP
F0
50
60
40
40
80
ENDCHAR
STARTCHAR G
ENCODING 71
SWIDTH 732 0
DWIDTH 6 0
BBX 6 6 0 0
BITMAP
78
C8
80
9C
C8
78
ENDCHAR
STARTCHAR H
ENCODING 72
SWIDTH 771 0
DWIDTH 6 0
BBX 6 6 0 0
BITMAP
FC
48
78
48
48
FC
ENDCHAR
STARTCHAR I
ENCODING 73
SWIDTH 325 0
DWIDTH 3 0
BBX 3 6 0 0
BITMAP
E0
40
40
40
40
E0
ENDCHAR
STARTCHAR J
ENCODING 74
SWIDTH 422 0
DWIDTH 3 0
BBX 3 8 0 -2
BITMAP
60
40
40
40
40
40
C0
C0
ENDCHAR
STARTCHAR K
ENCODING 75
SWIDTH 708 0
DWIDTH 6 0
BBX 5 6 0 0
BITMAP
E8
50
60
60
50
F8
ENDCHAR
STARTCHAR L
ENCODING 76
SWIDTH 557 0
DWIDTH 4 0
BBX 4 6 0 0
BITMAP
E0
40
40
40
50
F0
ENDCHAR
STARTCHAR M
ENCODING 77
SWIDTH 860 0
DWIDTH 7 0
BBX 7 6 0 0
BITMAP
C6
6C
6C
5C
54
EE
ENDCHAR
STARTCHAR N
ENCODING 78
SWIDTH 751 0
DWIDTH 6 0
BBX 6 6 0 0
BITMAP
DC
68
68
58
58
E8
ENDCHAR
STARTCHAR O
ENCODING 79
SWIDTH 777 0
DWIDTH 6 0
BBX 5 6 1 0
BITMAP
70
D8
88
88
D8
70
ENDCHAR
STARTCHAR P
ENCODING 80
SWIDTH 573 0
DWIDTH 5 0
BBX 5 6 0 0
BITMAP
F0
48
48
70
40
E0
ENDCHAR
STARTCHAR Q
ENCODING 81
SWIDTH 778 0
DWIDTH 6 0
BBX 6 8 1 -2
BITMAP
70
D8
88
88
D8
70
18
0C
ENDCHAR
STARTCHAR R
ENCODING 82
SWIDTH 679 0
DWIDTH 5 0
BBX 5 6 0 0
BITMAP
F0
50
50
60
50
F8
ENDCHAR
STARTCHAR S
ENCODING 83
SWIDTH 542 0
DWIDTH 4 0
BBX 3 6 1 0
BITMAP
E0
A0
C0
60
A0
E0
ENDCHAR
STARTCHAR T
ENCODING 84
SWIDTH 663 0
DWIDTH 5 0
BBX 5 6 0 0
BITMAP
F8
20
20
20
20
70
ENDCHAR
STARTCHAR U
ENCODING 85
SWIDTH 719 0
DWIDTH 6 0
BBX 6 6 0 0
BITMAP
FC
48
48
48
48
78
ENDCHAR
STARTCHAR V
ENCODING 86
SWIDTH 699 0
DWIDTH 6 0
BBX 6 6 0 0
BITMAP
CC
44
48
28
30
10
ENDCHAR
STARTCHAR W
ENCODING 87
SWIDTH 925 0
DWIDTH 7 0
BBX 7 6 0 0
BITMAP
D6
D2
5C
6C
6C
28
ENDCHAR
STARTCHAR X
ENCODING 88
SWIDTH 657 0
DWIDTH 5 0
BBX 5 6 0 0
BITMAP
C8
58
30
70
D0
D8
ENDCHAR
STARTCHAR Y
ENCODING 89
SWIDTH 678 0
DWIDTH 5 0
BBX 5 6 0 0
BITMAP
C8
58
70
20
20
70
ENDCHAR
STARTCHAR Z
ENCODING 90
SWIDTH 633 0
DWIDTH 5 0
BBX 4 6 0 0
BITMAP
F0
A0
20
40
50
F0
ENDCHAR
STARTCHAR bracketleft
ENCODING 91
SWIDTH 316 0
DWIDTH 3 0
BBX 2 8 0 -2
BITMAP
C0
80
80
80
80
80
80
C0
ENDCHAR
STARTCHAR backslash
ENCODING 92
SWIDTH 512 0
DWIDTH 4 0
BBX 4 8 0 -2
BITMAP
80
80
40
40
20
20
10
10
ENDCHAR
STARTCHAR bracketright
ENCODING 93
SWIDTH 316 0
DWIDTH 3 0
BBX 2 8 0 -2
BITMAP
C0
40
40
40
40
40
40
C0
ENDCHAR
STARTCHAR asciicircum
ENCODING 94
SWIDTH 608 0
DWIDTH 5 0
BBX 5 6 0 1
BITMAP
20
20
70
50
D8
88
ENDCHAR
STARTCHAR underscore
ENCODING 95
SWIDTH 500 0
DWIDTH 4 0
BBX 3 1 1 -1
BITMAP
E0
ENDCHAR
STARTCHAR grave
ENCODING 96
SWIDTH 602 0
DWIDTH 5 0
BBX 2 1 1 5
BITMAP
C0
ENDCHAR
STARTCHAR a
ENCODING 97
SWIDTH 543 0
DWIDTH 4 0
BBX 4 4 0 0
BITMAP
E0
60
A0
D0
ENDCHAR
STARTCHAR b
ENCODING 98
SWIDTH 611 0
DWIDTH 5 0
BBX 5 6 0 0
BITMAP
C0
40
78
48
48
70
ENDCHAR
STARTCHAR c
ENCODING 99
SWIDTH 509 0
DWIDTH 4 0
BBX 3 4 1 0
BITMAP
60
A0
80
60
ENDCHAR
STARTCHAR d
ENCODING 100
SWIDTH 642 0
DWIDTH 5 0
BBX 5 6 0 0
BITMAP
30
10
70
90
90
F8
ENDCHAR
STARTCHAR e
ENCODING 101
SWIDTH 530 0
DWIDTH 4 0
BBX 3 4 1 0
BITMAP
60
E0
80
60
ENDCHAR
STARTCHAR f
ENCODING 102
SWIDTH 404 0
DWIDTH 3 0
BBX 3 6 0 0
BITMAP
60
60
C0
40
40
C0
ENDCHAR
STARTCHAR g
ENCODING 103
SWIDTH 571 0
DWIDTH 5 0
BBX 4 6 0 -2
BITMAP
F0
A0
E0
F0
90
E0
ENDCHAR
STARTCHAR h
ENCODING 104
SWIDTH 633 0
DWIDTH 5 0
BBX 5 6 0 0
BITMAP
C0
40
70
50
50
F8
ENDCHAR
STARTCHAR i
ENCODING 105
SWIDTH 307 0
DWIDTH 2 0
BBX 3 6 0 0
BITMAP
40
00
C0
40
40
E0
ENDCHAR
STARTCHAR j
ENCODING 106
SWIDTH 346 0
DWIDTH 3 0
BBX 2 8 0 -2
BITMAP
40
00
40
40
40
40
C0
C0
ENDCHAR
STARTCHAR k
ENCODING 107
SWIDTH 599 0
DWIDTH 5 0
BBX 5 6 0 0
BITMAP
C0
40
58
70
50
F8
ENDCHAR
STARTCHAR l
ENCODING 108
SWIDTH 313 0
DWIDTH 3 0
BBX 3 6 0 0
BITMAP
C0
40
40
40
40
E0
ENDCHAR
STARTCHAR m
ENCODING 109
SWIDTH 946 0
DWIDTH 8 0
BBX 7 4 0 0
BITMAP
FC
54
54
FE
ENDCHAR
STARTCHAR n
ENCODING 110
SWIDTH 633 0
DWIDTH 5 0
BBX 5 4 0 0
BITMAP
F0
50
50
F8
ENDCHAR
STARTCHAR o
ENCODING 111
SWIDTH 602 0
DWIDTH 5 0
BBX 4 4 0 0
BITMAP
60
90
90
60
ENDCHAR
STARTCHAR p
ENCODING 112
SWIDTH 642 0
DWIDTH 5 0
BBX 5 6 0 -2
BITMAP
F8
48
48
70
40
E0
ENDCHAR
STARTCHAR q
ENCODING 113
SWIDTH 617 0
DWIDTH 5 0
BBX 5 6 0 -2
BITMAP
70
90
90
F0
10
38
ENDCHAR
STARTCHAR r
ENCODING 114
SWIDTH 440 0
DWIDTH 4 0
BBX 4 4 0 0
BITMAP
F0
50
40
E0
ENDCHAR
STARTCHAR s
ENCODING 115
SWIDTH 504 0
DWIDTH 4 0
BBX 3 4 1 0
BITMAP
E0
E0
E0
E0
ENDCHAR
STARTCHAR t
ENCODING 116
SWIDTH 392 0
DWIDTH 3 0
BBX 3 6 0 0
BITMAP
40
40
E0
40
40
60
ENDCHAR
STARTCHAR u
ENCODING 117
SWIDTH 633 0
DWIDTH 5 0
BBX 5 4 0 0
BITMAP
F0
50
50
78
ENDCHAR
STARTCHAR v
ENCODING 118
SWIDTH 545 0
DWIDTH 4 0
BBX 4 4 0 0
BITMAP
D0
90
60
60
ENDCHAR
STARTCHAR w
ENCODING 119
SWIDTH 795 0
DWIDTH 6 0
BBX 6 4 0 0
BITMAP
D4
B4
78
48
ENDCHAR
STARTCHAR x
ENCODING 120
SWIDTH 557 0
DWIDTH 4 0
BBX 4 4 0 0
BITMAP
D0
70
E0
B0
ENDCHAR
STARTCHAR y
ENCODING 121
SWIDTH 551 0
DWIDTH 4 0
BBX 4 6 0 -2
BITMAP
D0
90
70
60
20
40
ENDCHAR
STARTCHAR z
ENCODING 122
SWIDTH 595 0
DWIDTH 5 0
BBX 4 4 0 0
BITMAP
F0
A0
50
F0
ENDCHAR
STARTCHAR braceleft
ENCODING 123
SWIDTH 343 0
DWIDTH 3 0
BBX 3 8 0 -2
BITMAP
60
40
40
40
C0
40
40
60
ENDCHAR
STARTCHAR bar
ENCODING 124
SWIDTH 241 0
DWIDTH 2 0
BBX 1 8 0 -2
BITMAP
80
80
80
80
80
80
80
80
ENDCHAR
STARTCHAR braceright
ENCODING 125
SWIDTH 343 0
DWIDTH 3 0
BBX 3 8 0 -2
BITMAP
C0
40
40
40
60
40
40
C0
ENDCHAR
STARTCHAR asciitilde
ENCODING 126
SWIDTH 608 0
DWIDTH 5 0
BBX 5 2 0 1
BITMAP
E8
B8
ENDCHAR
STARTCHAR space
ENCODING 160
SWIDTH 333 0
DWIDTH 2 0
BBX 1 1 0 0
BITMAP
00
ENDCHAR
STARTCHAR quotedblright
ENCODING 161
SWIDTH 458 0
DWIDTH 4 0
BBX 3 2 0 4
BITMAP
A0
A0
ENDCHAR
STARTCHAR cent
ENCODING 162
SWIDTH 608 0
DWIDTH 5 0
BBX 3 6 1 0
BITMAP
40
60
E0
C0
E0
40
ENDCHAR
STARTCHAR sterling
ENCODING 163
SWIDTH 608 0
DWIDTH 5 0
BBX 4 6 1 0
BITMAP
30
50
40
C0
40
F0
ENDCHAR
STARTCHAR currency
ENCODING 164
SWIDTH 608 0
DWIDTH 5 0
BBX 6 6 0 0
BITMAP
84
78
48
48
78
84
ENDCHAR
STARTCHAR quotedblbase
ENCODING 165
SWIDTH 458 0
DWIDTH 4 0
BBX 3 3 0 -2
BITMAP
A0
A0
A0
ENDCHAR
STARTCHAR brokenbar
ENCODING 166
SWIDTH 241 0
DWIDTH 2 0
BBX 1 8 0 -2
BITMAP
80
80
80
80
80
80
80
80
ENDCHAR
STARTCHAR section
ENCODING 167
SWIDTH 608 0
DWIDTH 5 0
BBX 3 8 1 -2
BITMAP
E0
A0
80
E0
E0
40
A0
E0
ENDCHAR
STARTCHAR Oslash
ENCODING 168
SWIDTH 777 0
DWIDTH 6 0
BBX 7 6 2 0
BITMAP
3E
6C
5C
74
6C
F8
ENDCHAR
STARTCHAR copyright
ENCODING 169
SWIDTH 855 0
DWIDTH 7 0
BBX 7 6 0 0
BITMAP
7C
DE
AA
A2
DE
7C
ENDCHAR
STARTCHAR Rcommaaccent
ENCODING 170
SWIDTH 679 0
DWIDTH 5 0
BBX 5 10 0 -4
BITMAP
F0
50
50
60
50
F8
00
20
20
20
ENDCHAR
STARTCHAR guillemotleft
ENCODING 171
SWIDTH 530 0
DWIDTH 4 0
BBX 3 4 1 0
BITMAP
E0
E0
E0
60
ENDCHAR
STARTCHAR logicalnot
ENCODING 172
SWIDTH 608 0
DWIDTH 5 0
BBX 5 2 0 1
BITMAP
F8
08
ENDCHAR
STARTCHAR hyphen
ENCODING 173
SWIDTH 325 0
DWIDTH 3 0
BBX 2 1 0 2
BITMAP
C0
ENDCHAR
STARTCHAR registered
ENCODING 174
SWIDTH 608 0
DWIDTH 5 0
BBX 4 4 0 2
BITMAP
60
F0
D0
60
ENDCHAR
STARTCHAR AE
ENCODING 175
SWIDTH 919 0
DWIDTH 7 0
BBX 7 6 0 0
BITMAP
0E
1A
38
2C
7A
9E
ENDCHAR
STARTCHAR degree
ENCODING 176
SWIDTH 259 0
DWIDTH 2 0
BBX 1 2 1 4
BITMAP
80
80
ENDCHAR
STARTCHAR plusminus
ENCODING 177
SWIDTH 608 0
DWIDTH 5 0
BBX 5 5 0 0
BITMAP
20
F8
20
00
F8
ENDCHAR
STARTCHAR twosuperior
ENCODING 178
SWIDTH 365 0
DWIDTH 3 0
BBX 2 3 -4 3
BITMAP
C0
C0
C0
ENDCHAR
STARTCHAR threesuperior
ENCODING 179
SWIDTH 365 0
DWIDTH 3 0
BBX 2 3 -4 3
BITMAP
C0
80
C0
ENDCHAR
STARTCHAR quotedblleft
ENCODING 180
SWIDTH 458 0
DWIDTH 4 0
BBX 3 2 0 4
BITMAP
A0
A0
ENDCHAR
STARTCHAR mu
ENCODING 181
SWIDTH 626 0
DWIDTH 5 0
BBX 5 6 0 -2
BITMAP
F0
50
50
78
40
40
ENDCHAR
STARTCHAR paragraph
ENCODING 182
SWIDTH 608 0
DWIDTH 5 0
BBX 4 8 0 -2
BITMAP
F0
F0
F0
70
30
30
30
30
ENDCHAR
STARTCHAR periodcentered
ENCODING 183
SWIDTH 608 0
DWIDTH 5 0
BBX 1 1 2 2
BITMAP
80
ENDCHAR
STARTCHAR oslash
ENCODING 184
SWIDTH 602 0
DWIDTH 5 0
BBX 4 4 0 0
BITMAP
70
B0
D0
E0
ENDCHAR
STARTCHAR onesuperior
ENCODING 185
SWIDTH 365 0
DWIDTH 3 0
BBX 3 3 -3 3
BITMAP
C0
40
E0
ENDCHAR
STARTCHAR rcommaaccent
ENCODING 186
SWIDTH 440 0
DWIDTH 4 0
BBX 4 8 0 -4
BITMAP
F0
50
40
E0
00
40
40
40
ENDCHAR
STARTCHAR guillemotright
ENCODING 187
SWIDTH 530 0
DWIDTH 4 0
BBX 3 4 1 0
BITMAP
C0
E0
E0
E0
ENDCHAR
STARTCHAR onequarter
ENCODING 188
SWIDTH 766 0
DWIDTH 6 0
BBX 6 6 2 0
BITMAP
C4
48
F0
1C
3C
44
ENDCHAR
STARTCHAR onehalf
ENCODING 189
SWIDTH 766 0
DWIDTH 6 0
BBX 6 6 2 0
BITMAP
C4
48
F0
1C
2C
4C
ENDCHAR
STARTCHAR threequarters
ENCODING 190
SWIDTH 766 0
DWIDTH 6 0
BBX 5 6 1 0
BITMAP
C8
90
E0
38
78
88
ENDCHAR
STARTCHAR ae
ENCODING 191
SWIDTH 819 0
DWIDTH 7 0
BBX 5 4 1 0
BITMAP
D8
78
A0
D8
ENDCHAR
STARTCHAR Aogonek
ENCODING 192
SWIDTH 744 0
DWIDTH 6 0
BBX 6 9 0 -3
BITMAP
20
30
50
78
88
CC
00
20
20
ENDCHAR
STARTCHAR Iogonek
ENCODING 193
SWIDTH 325 0
DWIDTH 3 0
BBX 3 9 0 -3
BITMAP
E0
40
40
40
40
E0
00
40
40
ENDCHAR
STARTCHAR Amacron
ENCODING 194
SWIDTH 744 0
DWIDTH 6 0
BBX 6 8 0 0
BITMAP
30
00
20
30
50
78
88
CC
ENDCHAR
STARTCHAR Cacute
ENCODING 195
SWIDTH 695 0
DWIDTH 6 0
BBX 5 8 0 0
BITMAP
30
00
78
C8
80
80
C0
78
ENDCHAR
STARTCHAR Adieresis
ENCODING 196
SWIDTH 744 0
DWIDTH 6 0
BBX 6 7 0 0
BITMAP
30
20
30
50
78
88
CC
ENDCHAR
STARTCHAR Aring
ENCODING 197
SWIDTH 744 0
DWIDTH 6 0
BBX 6 8 0 0
BITMAP
10
28
30
30
50
78
88
CC
ENDCHAR
STARTCHAR Eogonek
ENCODING 198
SWIDTH 566 0
DWIDTH 5 0
BBX 4 9 0 -3
BITMAP
F0
50
60
40
50
F0
00
20
20
ENDCHAR
STARTCHAR Emacron
ENCODING 199
SWIDTH 566 0
DWIDTH 5 0
BBX 4 8 0 0
BITMAP
60
00
F0
50
60
40
50
F0
ENDCHAR
STARTCHAR Ccaron
ENCODING 200
SWIDTH 695 0
DWIDTH 6 0
BBX 5 8 0 0
BITMAP
70
00
78
C8
80
80
C0
78
ENDCHAR
STARTCHAR Eacute
ENCODING 201
SWIDTH 566 0
DWIDTH 5 0
BBX 4 7 0 0
BITMAP
40
F0
50
60
40
50
F0
ENDCHAR
STARTCHAR Zacute
ENCODING 202
SWIDTH 633 0
DWIDTH 5 0
BBX 4 8 0 0
BITMAP
60
00
F0
A0
20
40
50
F0
ENDCHAR
STARTCHAR Edotaccent
ENCODING 203
SWIDTH 566 0
DWIDTH 5 0
BBX 4 8 0 0
BITMAP
20
00
F0
50
60
40
50
F0
ENDCHAR
STARTCHAR Gcommaaccent
ENCODING 204
SWIDTH 732 0
DWIDTH 6 0
BBX 6 10 0 -4
BITMAP
78
C8
80
9C
C8
78
00
20
20
20
ENDCHAR
STARTCHAR Kcommaaccent
ENCODING 205
SWIDTH 708 0
DWIDTH 6 0
BBX 5 10 0 -4
BITMAP
E8
50
60
60
50
F8
00
20
20
20
ENDCHAR
STARTCHAR Imacron
ENCODING 206
SWIDTH 325 0
DWIDTH 3 0
BBX 3 8 0 0
BITMAP
60
00
E0
40
40
40
40
E0
ENDCHAR
STARTCHAR Lcommaaccent
ENCODING 207
SWIDTH 557 0
DWIDTH 4 0
BBX 4 10 0 -4
BITMAP
E0
40
40
40
50
F0
00
20
20
20
ENDCHAR
STARTCHAR Scaron
ENCODING 208
SWIDTH 542 0
DWIDTH 4 0
BBX 3 7 1 0
BITMAP
E0
E0
A0
C0
60
A0
E0
ENDCHAR
STARTCHAR Nacute
ENCODING 209
SWIDTH 751 0
DWIDTH 6 0
BBX 6 8 0 0
BITMAP
30
00
DC
68
68
58
58
E8
ENDCHAR
STARTCHAR Ncommaaccent
ENCODING 210
SWIDTH 751 0
DWIDTH 6 0
BBX 6 10 0 -4
BITMAP
DC
68
68
58
58
E8
00
20
20
20
ENDCHAR
STARTCHAR Oacute
ENCODING 211
SWIDTH 777 0
DWIDTH 6 0
BBX 5 7 1 0
BITMAP
20
70
D8
88
88
D8
70
ENDCHAR
STARTCHAR Omacron
ENCODING 212
SWIDTH 777 0
DWIDTH 6 0
BBX 5 8 1 0
BITMAP
30
00
70
D8
88
88
D8
70
ENDCHAR
STARTCHAR Otilde
ENCODING 213
SWIDTH 777 0
DWIDTH 6 0
BBX 5 7 1 0
BITMAP
70
70
D8
88
88
D8
70
ENDCHAR
STARTCHAR Odieresis
ENCODING 214
SWIDTH 777 0
DWIDTH 6 0
BBX 5 7 1 0
BITMAP
60
70
D8
88
88
D8
70
ENDCHAR
STARTCHAR multiply
ENCODING 215
SWIDTH 608 0
DWIDTH 5 0
BBX 5 5 0 0
BITMAP
88
50
20
50
88
ENDCHAR
STARTCHAR Uogonek
ENCODING 216
SWIDTH 719 0
DWIDTH 6 0
BBX 6 9 0 -3
BITMAP
FC
48
48
48
48
78
00
10
10
ENDCHAR
STARTCHAR Lslash
ENCODING 217
SWIDTH 557 0
DWIDTH 4 0
BBX 4 6 0 0
BITMAP
E0
40
60
C0
50
F0
ENDCHAR
STARTCHAR Sacute
ENCODING 218
SWIDTH 542 0
DWIDTH 4 0
BBX 3 8 1 0
BITMAP
60
00
E0
A0
C0
60
A0
E0
ENDCHAR
STARTCHAR Umacron
ENCODING 219
SWIDTH 719 0
DWIDTH 6 0
BBX 6 8 0 0
BITMAP
30
00
FC
48
48
48
48
78
ENDCHAR
STARTCHAR Udieresis
ENCODING 220
SWIDTH 719 0
DWIDTH 6 0
BBX 6 7 0 0
BITMAP
30
FC
48
48
48
48
78
ENDCHAR
STARTCHAR Zdotaccent
ENCODING 221
SWIDTH 633 0
DWIDTH 5 0
BBX 4 8 0 0
BITMAP
40
00
F0
A0
20
40
50
F0
ENDCHAR
STARTCHAR Zcaron
ENCODING 222
SWIDTH 633 0
DWIDTH 5 0
BBX 4 7 0 0
BITMAP
50
F0
A0
20
40
50
F0
ENDCHAR
STARTCHAR germandbls
ENCODING 223
SWIDTH 614 0
DWIDTH 5 0
BBX 5 6 0 0
BITMAP
70
50
60
70
68
F8
ENDCHAR
STARTCHAR aogonek
ENCODING 224
SWIDTH 543 0
DWIDTH 4 0
BBX 4 7 0 -3
BITMAP
E0
60
A0
D0
00
40
40
ENDCHAR
STARTCHAR iogonek
ENCODING 225
SWIDTH 307 0
DWIDTH 2 0
BBX 3 9 0 -3
BITMAP
40
00
C0
40
40
E0
00
40
40
ENDCHAR
STARTCHAR amacron
ENCODING 226
SWIDTH 543 0
DWIDTH 4 0
BBX 4 6 0 0
BITMAP
60
00
E0
60
A0
D0
ENDCHAR
STARTCHAR cacute
ENCODING 227
SWIDTH 509 0
DWIDTH 4 0
BBX 3 6 1 0
BITMAP
60
00
60
A0
80
60
ENDCHAR
STARTCHAR adieresis
ENCODING 228
SWIDTH 543 0
DWIDTH 4 0
BBX 4 5 0 0
BITMAP
60
E0
60
A0
D0
ENDCHAR
STARTCHAR aring
ENCODING 229
SWIDTH 543 0
DWIDTH 4 0
BBX 4 6 0 0
BITMAP
40
A0
E0
60
A0
D0
ENDCHAR
STARTCHAR eogonek
ENCODING 230
SWIDTH 530 0
DWIDTH 4 0
BBX 3 7 1 -3
BITMAP
60
E0
80
60
00
40
40
ENDCHAR
STARTCHAR emacron
ENCODING 231
SWIDTH 530 0
DWIDTH 4 0
BBX 3 6 1 0
BITMAP
60
00
60
E0
80
60
ENDCHAR
STARTCHAR ccaron
ENCODING 232
SWIDTH 509 0
DWIDTH 4 0
BBX 3 6 1 0
BITMAP
E0
00
60
A0
80
60
ENDCHAR
STARTCHAR eacute
ENCODING 233
SWIDTH 530 0
DWIDTH 4 0
BBX 3 5 1 0
BITMAP
60
60
E0
80
60
ENDCHAR
STARTCHAR zacute
ENCODING 234
SWIDTH 595 0
DWIDTH 5 0
BBX 4 6 0 0
BITMAP
60
00
F0
A0
50
F0
ENDCHAR
STARTCHAR edotaccent
ENCODING 235
SWIDTH 530 0
DWIDTH 4 0
BBX 3 6 1 0
BITMAP
40
00
60
E0
80
60
ENDCHAR
STARTCHAR gcommaaccent
ENCODING 236
SWIDTH 571 0
DWIDTH 5 0
BBX 4 9 0 -2
BITMAP
40
40
00
F0
A0
E0
F0
90
E0
ENDCHAR
STARTCHAR kcommaaccent
ENCODING 237
SWIDTH 599 0
DWIDTH 5 0
BBX 5 10 0 -4
BITMAP
C0
40
58
70
50
F8
00
20
20
20
ENDCHAR
STARTCHAR imacron
ENCODING 238
SWIDTH 307 0
DWIDTH 2 0
BBX 3 6 0 0
BITMAP
C0
00
C0
40
40
E0
ENDCHAR
STARTCHAR lcommaaccent
ENCODING 239
SWIDTH 313 0
DWIDTH 3 0
BBX 3 10 0 -4
BITMAP
C0
40
40
40
40
E0
00
40
40
40
ENDCHAR
STARTCHAR scaron
ENCODING 240
SWIDTH 504 0
DWIDTH 4 0
BBX 3 5 1 0
BITMAP
E0
E0
E0
E0
E0
ENDCHAR
STARTCHAR nacute
ENCODING 241
SWIDTH 633 0
DWIDTH 5 0
BBX 5 6 0 0
BITMAP
60
00
F0
50
50
F8
ENDCHAR
STARTCHAR ncommaaccent
ENCODING 242
SWIDTH 633 0
DWIDTH 5 0
BBX 5 8 0 -4
BITMAP
F0
50
50
F8
00
20
20
20
ENDCHAR
STARTCHAR oacute
ENCODING 243
SWIDTH 602 0
DWIDTH 5 0
BBX 4 5 0 0
BITMAP
60
60
90
90
60
ENDCHAR
STARTCHAR omacron
ENCODING 244
SWIDTH 602 0
DWIDTH 5 0
BBX 4 6 0 0
BITMAP
60
00
60
90
90
60
ENDCHAR
STARTCHAR otilde
ENCODING 245
SWIDTH 602 0
DWIDTH 5 0
BBX 4 5 0 0
BITMAP
70
60
90
90
60
ENDCHAR
STARTCHAR odieresis
ENCODING 246
SWIDTH 602 0
DWIDTH 5 0
BBX 4 5 0 0
BITMAP
60
60
90
90
60
ENDCHAR
STARTCHAR divide
ENCODING 247
SWIDTH 608 0
DWIDTH 5 0
BBX 5 4 0 0
BITMAP
20
00
F8
20
ENDCHAR
STARTCHAR uogonek
ENCODING 248
SWIDTH 633 0
DWIDTH 5 0
BBX 5 7 0 -3
BITMAP
F0
50
50
78
00
20
20
ENDCHAR
STARTCHAR lslash
ENCODING 249
SWIDTH 313 0
DWIDTH 3 0
BBX 3 6 0 0
BITMAP
C0
40
60
C0
40
E0
ENDCHAR
STARTCHAR sacute
ENCODING 250
SWIDTH 504 0
DWIDTH 4 0
BBX 3 6 1 0
BITMAP
60
00
E0
E0
E0
E0
ENDCHAR
STARTCHAR umacron
ENCODING 251
SWIDTH 633 0
DWIDTH 5 0
BBX 5 6 0 0
BITMAP
60
00
F0
50
50
78
ENDCHAR
STARTCHAR udieresis
ENCODING 252
SWIDTH 633 0
DWIDTH 5 0
BBX 5 5 0 0
BITMAP
30
F0
50
50
78
ENDCHAR
STARTCHAR zdotaccent
ENCODING 253
SWIDTH 595 0
DWIDTH 5 0
BBX 4 6 0 0
BITMAP
40
00
F0
A0
50
F0
ENDCHAR
STARTCHAR zcaron
ENCODING 254
SWIDTH 595 0
DWIDTH 5 0
BBX 4 5 0 0
BITMAP
A0
F0
A0
50
F0
ENDCHAR
STARTCHAR quoteright
ENCODING 255
SWIDTH 265 0
DWIDTH 2 0
BBX 1 2 1 4
BITMAP
80
80
ENDCHAR
ENDFONT
